<?xml version="1.0" encoding="utf-8"?><svg xmlns="http://www.w3.org/2000/svg" xmlns:xlink="http://www.w3.org/1999/xlink"><symbol viewBox="0 0 240.823 240.823" id="back" xmlns="http://www.w3.org/2000/svg"><path d="M57.633 129.007L165.93 237.268c4.752 4.74 12.451 4.74 17.215 0 4.752-4.74 4.752-12.439 0-17.179l-99.707-99.671 99.695-99.671c4.752-4.74 4.752-12.439 0-17.191-4.752-4.74-12.463-4.74-17.215 0L57.621 111.816c-4.679 4.691-4.679 12.511.012 17.191z"/></symbol><symbol viewBox="0 0 219.151 219.151" id="back-flash" xmlns="http://www.w3.org/2000/svg"><path d="M109.576 219.151c60.419 0 109.573-49.156 109.573-109.576C219.149 49.156 169.995 0 109.576 0S.002 49.156.002 109.575c0 60.42 49.155 109.576 109.574 109.576zm0-204.151c52.148 0 94.573 42.426 94.574 94.575 0 52.149-42.425 94.575-94.574 94.576-52.148-.001-94.573-42.427-94.573-94.577C15.003 57.427 57.428 15 109.576 15z"/><path d="M94.861 156.507a7.502 7.502 0 0010.606 0 7.499 7.499 0 00-.001-10.608l-28.82-28.819 83.457-.008a7.5 7.5 0 00-.001-15l-83.46.008 28.827-28.825a7.5 7.5 0 00-10.607-10.608l-41.629 41.628a7.495 7.495 0 00-2.197 5.303 7.51 7.51 0 002.198 5.305l41.627 41.624z"/></symbol><symbol viewBox="0 0 240.823 240.823" id="next" xmlns="http://www.w3.org/2000/svg"><path d="M183.189 111.816L74.892 3.555c-4.752-4.74-12.451-4.74-17.215 0-4.752 4.74-4.752 12.439 0 17.179l99.707 99.671-99.695 99.671c-4.752 4.74-4.752 12.439 0 17.191 4.752 4.74 12.463 4.74 17.215 0l108.297-108.261c4.68-4.691 4.68-12.511-.012-17.19z"/></symbol><symbol viewBox="0 0 384.97 384.97" id="next__slider-post" xmlns="http://www.w3.org/2000/svg"><path d="M192.485 0C86.173 0 0 86.173 0 192.485c0 106.3 86.173 192.485 192.485 192.485 106.3 0 192.485-86.185 192.485-192.485C384.97 86.173 298.785 0 192.485 0zm0 360.909c-93.018 0-168.424-75.406-168.424-168.424S99.467 24.061 192.485 24.061s168.424 75.406 168.424 168.424-75.406 168.424-168.424 168.424z"/><path d="M309.263 183.895l-82.997-84.2a11.942 11.942 0 00-17.011 0c-4.704 4.752-4.704 12.439 0 17.191l62.558 63.46H84.212c-6.641 0-12.03 5.438-12.03 12.151s5.39 12.151 12.03 12.151h187.589l-62.558 63.46c-4.692 4.74-4.692 12.439 0 17.179 4.704 4.74 12.319 4.74 17.011 0l82.997-84.2c2.25-2.262 3.537-5.426 3.537-8.602 0-3.164-1.299-6.328-3.525-8.59z"/></symbol></svg>